<svg xmlns="http://www.w3.org/2000/svg" xmlns:xlink="http://www.w3.org/1999/xlink" width="128" height="128"><defs><linearGradient id="e"><stop offset="0" style="stop-color:#fff;stop-opacity:1"/><stop offset="1" style="stop-color:#fff;stop-opacity:0"/></linearGradient><linearGradient id="f"><stop style="stop-color:#eeeeec;stop-opacity:1" offset="0"/><stop style="stop-color:#d3d7cf;stop-opacity:1" offset="1"/></linearGradient><linearGradient id="h"><stop style="stop-color:#fff;stop-opacity:1" offset="0"/><stop style="stop-color:#fff;stop-opacity:0" offset="1"/></linearGradient><linearGradient id="d"><stop style="stop-color:#fff;stop-opacity:1" offset="0"/><stop style="stop-color:#fff;stop-opacity:0" offset="1"/></linearGradient><linearGradient id="c"><stop style="stop-color:#000;stop-opacity:1" offset="0"/><stop style="stop-color:#000;stop-opacity:0" offset="1"/></linearGradient><linearGradient id="g"><stop style="stop-color:#fce94f;stop-opacity:1" offset="0"/><stop style="stop-color:#edd400;stop-opacity:1" offset="1"/></linearGradient><linearGradient id="b"><stop offset="0" style="stop-color:white;stop-opacity:1"/><stop offset="1" style="stop-color:white;stop-opacity:0"/></linearGradient><linearGradient xlink:href="#b" id="s" gradientUnits="userSpaceOnUse" gradientTransform="matrix(.7986 0 0 .7986 72.167 -23.772)" x1="26.063" y1="23.266" x2="29.031" y2="55.266"/><linearGradient id="a"><stop offset="0" style="stop-color:#888a85;stop-opacity:1"/><stop offset="1" style="stop-color:#555753;stop-opacity:1"/></linearGradient><linearGradient xlink:href="#e" id="q" gradientUnits="userSpaceOnUse" gradientTransform="matrix(4.40495 0 0 4.65004 -209.871 10.1)" x1="63.397" y1="-9.383" x2="68.911" y2="16.839"/><linearGradient xlink:href="#e" id="k" gradientUnits="userSpaceOnUse" gradientTransform="matrix(5.8353 0 0 6.15997 -298.84 15.4)" x1="63.397" y1="-9.383" x2="68.911" y2="16.839"/><radialGradient xlink:href="#d" id="l" gradientUnits="userSpaceOnUse" gradientTransform="matrix(1 0 0 .93023 0 -.24)" cx="62.225" cy="-3.442" fx="62.225" fy="-3.442" r="10.081"/><radialGradient xlink:href="#d" id="m" gradientUnits="userSpaceOnUse" gradientTransform="matrix(1 0 0 .93023 0 -.24)" cx="62.225" cy="-3.442" fx="62.225" fy="-3.442" r="10.081"/><radialGradient xlink:href="#d" id="n" gradientUnits="userSpaceOnUse" gradientTransform="matrix(1 0 0 .93023 0 -.24)" cx="62.225" cy="-3.442" fx="62.225" fy="-3.442" r="10.081"/><radialGradient xlink:href="#d" id="o" gradientUnits="userSpaceOnUse" gradientTransform="matrix(1 0 0 .93023 0 -.24)" cx="62.225" cy="-3.442" fx="62.225" fy="-3.442" r="10.081"/><radialGradient xlink:href="#h" id="t" gradientUnits="userSpaceOnUse" gradientTransform="matrix(4.584 -1.88815 1.63157 4.55644 -206.444 125.482)" cx="60.121" cy="-8.974" fx="60.121" fy="-8.974" r="9.755"/><radialGradient xlink:href="#f" id="p" gradientUnits="userSpaceOnUse" gradientTransform="matrix(4.91043 0 0 5.18376 -241.312 14.92)" cx="62.2" cy="-8.726" fx="62.2" fy="-8.726" r="9.755"/><radialGradient xlink:href="#a" id="r" gradientUnits="userSpaceOnUse" gradientTransform="matrix(2.6149 0 0 2.61495 -29.027 23.296)" cx="62.2" cy="-8.726" fx="62.2" fy="-8.726" r="9.755"/><radialGradient xlink:href="#g" id="j" gradientUnits="userSpaceOnUse" gradientTransform="matrix(6.54927 0 0 6.91382 -343.248 21.978)" cx="62.2" cy="-8.726" fx="62.2" fy="-8.726" r="9.755"/><radialGradient xlink:href="#c" id="i" gradientUnits="userSpaceOnUse" gradientTransform="matrix(5.8353 0 0 2.50614 -302.433 23.13)" cx="62.625" cy="4.625" fx="62.625" fy="4.625" r="10.625"/></defs><g transform="matrix(1 0 0 .98426 0 64.992)" style="display:inline"><ellipse style="color:#000;display:inline;overflow:visible;visibility:visible;opacity:.56043958;fill:url(#i);fill-opacity:1;fill-rule:evenodd;stroke:none;stroke-width:.99999988;stroke-linecap:butt;stroke-linejoin:round;stroke-miterlimit:4;stroke-dasharray:none;stroke-dashoffset:0;stroke-opacity:1;marker:none;marker-start:none;marker-mid:none;marker-end:none" cx="63.003" cy="34.722" rx="62" ry="26.628"/><path style="fill:url(#j);fill-opacity:1;fill-rule:nonzero;stroke:#c4a000;stroke-width:2.78874016;stroke-miterlimit:4;stroke-dasharray:none;stroke-opacity:1" d="M118.126-6.228c0 31.489-24.182 57.016-54.007 57.016-29.828 0-54.008-25.527-54.008-57.016 0-31.487 24.18-57.011 54.008-57.011 29.825 0 54.007 25.524 54.007 57.011z"/><path d="M115.15-6.228c0 29.755-22.849 53.876-51.031 53.876-28.185 0-51.033-24.122-51.033-53.876 0-29.753 22.848-53.871 51.033-53.871 28.182 0 51.032 24.118 51.032 53.871z" style="opacity:.52747258;fill:none;fill-opacity:1;fill-rule:nonzero;stroke:url(#k);stroke-width:2.78874183;stroke-miterlimit:4;stroke-dasharray:none;stroke-opacity:1"/><path d="M104.611-6.227c0 23.609-18.13 42.748-40.492 42.748-22.364 0-40.494-19.14-40.494-42.748 0-23.608 18.13-42.746 40.494-42.746 22.362 0 40.492 19.138 40.492 42.746z" style="fill:url(#p);fill-opacity:1;fill-rule:nonzero;stroke:#babdb6;stroke-width:2.09090853;stroke-miterlimit:4;stroke-dasharray:none;stroke-opacity:1"/><path style="opacity:.52747258;fill:none;fill-opacity:1;fill-rule:nonzero;stroke:url(#q);stroke-width:2.1051662;stroke-miterlimit:4;stroke-dasharray:none;stroke-opacity:1" d="M102.642-6.227c0 22.46-17.249 40.67-38.523 40.67-21.276 0-38.524-18.21-38.524-40.67s17.248-40.667 38.524-40.667c21.274 0 38.523 18.207 38.523 40.667z"/><g style="opacity:.25"><path d="M91.37-22.569 73.14-3.348h4.206l.05 15.157 28.748-.05-.118-15.192 3.575.035-7.455-7.849.007-9.704-5.625-.008.025 3.725-5.183-5.335z" style="color:#000;display:inline;overflow:visible;visibility:visible;opacity:1;fill:url(#r);fill-opacity:1;fill-rule:nonzero;stroke:#2e3436;stroke-width:.80495489;stroke-linecap:butt;stroke-linejoin:miter;stroke-miterlimit:4;stroke-dasharray:none;stroke-dashoffset:0;stroke-opacity:1;marker:none;marker-start:none;marker-mid:none;marker-end:none;enable-background:accumulate" transform="matrix(1.61128 0 0 1.70094 -84.605 -2.357)"/><path d="M91.358-21.352 75.11-4.207h2.246a.846.846 0 0 1 .849.849l.05 14.324 27.027-.05-.1-14.35a.846.846 0 0 1 .849-.848h1.572l-6.089-6.388a.846.846 0 0 1-.225-.574l.025-8.86h-3.943l.025 2.87a.846.846 0 0 1-1.447.599l-4.592-4.717z" style="color:#000;display:inline;overflow:visible;visibility:visible;opacity:.41237111;fill:none;fill-opacity:1;fill-rule:nonzero;stroke:url(#s);stroke-width:.79859501;stroke-linecap:butt;stroke-linejoin:miter;stroke-miterlimit:4;stroke-dashoffset:0;stroke-opacity:1;marker:none;marker-start:none;marker-mid:none;marker-end:none" transform="matrix(1.61128 0 0 1.70094 -84.605 -2.357)"/></g><path style="opacity:.6;fill:url(#t);fill-opacity:1;fill-rule:nonzero;stroke:none;stroke-width:1.01744699;stroke-miterlimit:4;stroke-dasharray:none;stroke-opacity:1" d="M105.212-3.554c0 23.61-36.286-18.567-53.106-8.786-17.822 10.365-27.88 32.395-27.88 8.786 0-23.608 18.13-42.745 40.493-42.745 22.362 0 40.493 19.137 40.493 42.745z"/></g></svg>