<?xml version="1.0" encoding="UTF-8" standalone="no"?>
<!-- Uploaded to: SVG Repo, www.svgrepo.com, Generator: SVG Repo Mixer Tools -->

<svg
   version="1.1"
   id="Icons"
   viewBox="0 0 28.680946 26.516348"
   xml:space="preserve"
   sodipodi:docname="games.svg"
   width="28.680946"
   height="26.516348"
   inkscape:version="1.3.2 (091e20e, 2023-11-25, custom)"
   xmlns:inkscape="http://www.inkscape.org/namespaces/inkscape"
   xmlns:sodipodi="http://sodipodi.sourceforge.net/DTD/sodipodi-0.dtd"
   xmlns="http://www.w3.org/2000/svg"
   xmlns:svg="http://www.w3.org/2000/svg"><defs
   id="defs6" /><sodipodi:namedview
   id="namedview6"
   pagecolor="#505050"
   bordercolor="#eeeeee"
   borderopacity="1"
   inkscape:showpageshadow="0"
   inkscape:pageopacity="0"
   inkscape:pagecheckerboard="0"
   inkscape:deskcolor="#505050"
   inkscape:zoom="13.859375"
   inkscape:cx="9.199549"
   inkscape:cy="12.807215"
   inkscape:window-width="1920"
   inkscape:window-height="1129"
   inkscape:window-x="-8"
   inkscape:window-y="-8"
   inkscape:window-maximized="1"
   inkscape:current-layer="Icons" />
<style
   type="text/css"
   id="style1">
	.st0{fill:none;stroke:#000000;stroke-width:2;stroke-linecap:round;stroke-linejoin:round;stroke-miterlimit:10;}
</style>
<path
   class="st0"
   d="m 21.340474,13.196167 c -1.2,0 -2.4,0.4 -3.3,1 h -7.4 c -0.9000005,-0.6 -2.1000005,-1 -3.3000005,-1 -3.3,0 -6,2.7 -6,6 0,3.3 2.7,6 6,6 1.2,0 2.4,-0.4 3.3000005,-1 h 7.4 c 0.9,0.6 2.1,1 3.3,1 3.3,0 6,-2.7 6,-6 0,-3.3 -2.7,-6 -6,-6 z"
   id="path1" />
<line
   class="st0"
   x1="7.3404737"
   y1="17.196167"
   x2="7.3404737"
   y2="21.196167"
   id="line1" />
<line
   class="st0"
   x1="5.3404737"
   y1="19.196167"
   x2="9.3404732"
   y2="19.196167"
   id="line2" />
<line
   class="st0"
   x1="21.340473"
   y1="17.196167"
   x2="21.340473"
   y2="17.196167"
   id="line3" />
<line
   class="st0"
   x1="19.340473"
   y1="19.196167"
   x2="19.340473"
   y2="19.196167"
   id="line4" />
<line
   class="st0"
   x1="23.340473"
   y1="19.196167"
   x2="23.340473"
   y2="19.196167"
   id="line5" />
<line
   class="st0"
   x1="21.340473"
   y1="21.196167"
   x2="21.340473"
   y2="21.196167"
   id="line6" />
<path
   class="st0"
   d="m 14.340474,14.196167 v -2 c 0,-2.2000001 -1.8,-4.0000001 -4,-4.0000001 H 7.3404735 c -2.2,0 -4,-1.8 -4,-4 v -3"
   id="path6" />
</svg>
