<?xml version="1.0" encoding="UTF-8" standalone="no"?>
<!-- Uploaded to: SVG Repo, www.svgrepo.com, Generator: SVG Repo Mixer Tools -->

<svg
   fill="#000000"
   width="800px"
   height="800px"
   viewBox="0 0 1920 1920"
   version="1.1"
   id="svg1"
   sodipodi:docname="rss-logo.svg"
   inkscape:version="1.3.2 (091e20e, 2023-11-25, custom)"
   xmlns:inkscape="http://www.inkscape.org/namespaces/inkscape"
   xmlns:sodipodi="http://sodipodi.sourceforge.net/DTD/sodipodi-0.dtd"
   xmlns="http://www.w3.org/2000/svg"
   xmlns:svg="http://www.w3.org/2000/svg">
  <defs
     id="defs1" />
  <sodipodi:namedview
     id="namedview1"
     pagecolor="#505050"
     bordercolor="#eeeeee"
     borderopacity="1"
     inkscape:showpageshadow="0"
     inkscape:pageopacity="0"
     inkscape:pagecheckerboard="0"
     inkscape:deskcolor="#505050"
     inkscape:zoom="0.89125"
     inkscape:cx="400"
     inkscape:cy="400"
     inkscape:window-width="1920"
     inkscape:window-height="1111"
     inkscape:window-x="-9"
     inkscape:window-y="-9"
     inkscape:window-maximized="1"
     inkscape:current-layer="svg1" />
  <path
     d="M53.333 628.96c682.454 0 1237.76 555.2 1237.76 1237.76v53.333H882.24v-53.333c0-457.067-371.84-828.907-828.907-828.907H0V628.96Zm0-628.96C1082.56 0 1920 837.44 1920 1866.667V1920h-408.853v-53.333c0-803.84-653.974-1457.814-1457.814-1457.814H0V0ZM267.19 1386.667c146.774 0 266.134 119.36 266.134 266.133 0 146.773-119.36 266.24-266.134 266.24S.95 1799.573.95 1652.8c0-146.773 119.467-266.133 266.24-266.133Z"
     fill-rule="evenodd"
     id="path1"
     style="fill:#f9f9f9" />
</svg>
